<svg xmlns="http://www.w3.org/2000/svg" width="188" height="56" viewBox="0 0 188 56">
    <g fill="#00695C" fill-rule="evenodd">
        <path d="M8.406 41.9c-.027.092-.06.195-.098.31-.644 2.015-.966 3.423-.966 4.225 0 1.083.28 1.647.88 1.647.322 0 .708-.434 1.137-1.257a1.2 1.2 0 0 1 .129-.173c.043-.022.064-.022.064.021v.195c-.364 1.95-.944 2.925-1.738 2.925-.858 0-1.266-.715-1.266-2.145 0-1.755.494-3.596 1.502-5.546l.126-.22a.695.695 0 0 1-.018-.17c0-.303-.172-.866-.494-1.711-.322-.845-.558-1.257-.708-1.257-.086 0-.15.022-.193.087-.021.065-.086.108-.236.108-.129 0-.322-.108-.58-.346-.235-.217-.343-.39-.343-.52 0-.065.086-.26.3-.607.194-.347.323-.498.365-.498.494 0 .945.281 1.33.866.387.585.645 1.343.816 2.297a.703.703 0 0 1 .022.173c.021.022.021.022.043 0a.59.59 0 0 1 .064-.173c.086-.564.257-1.408.58-2.535.321-.802.686-1.192 1.072-1.192.215 0 .408.13.6.412.194.238.28.433.28.585 0 .108-.043.26-.107.433-.065.26-.172.39-.258.39-.043 0-.15-.108-.3-.303s-.3-.282-.45-.282c-.344 0-.688.824-.966 2.492-.15.736-.28 1.256-.451 1.538-.05.1-.095.178-.138.232zm-6.081-1.578c-.875-.057-1.312-.857-1.312-2.38 0-1.95.557-4.007 1.673-6.152.28-.52.45-.802.494-.802.021 0 .021 0 .021.022 0 .087-.064.39-.236.888-.73 2.232-1.073 3.813-1.073 4.701 0 1.214.322 1.842.966 1.842.386 0 .815-.477 1.287-1.408a.757.757 0 0 1 .129-.195c.043-.022.064-.022.064.021.022.044.022.13 0 .217-.336 1.888-.868 2.953-1.582 3.196a3.608 3.608 0 0 1-.177.444c-1.073 2.34-1.61 4.31-1.61 5.892 0 1.387.365 2.578 1.095 3.532.944 1.3 2.403 1.95 4.377 1.95 1.438 0 3.24-.434 5.386-1.3 1.673-.694 3.304-1.539 4.935-2.514 1.459-.866 2.188-1.408 2.188-1.603 0-.238-1.008-.628-3.003-1.191-1.352-.368-2.704-.758-4.056-1.148-.343-.109-.493-.347-.386-.65.043-.282.15-.737.3-1.344h.022c.129-.39 1.695-.996 4.677-1.82 1.996-.54 3.991-1.083 5.965-1.646-.686-.043-2.21-.26-4.527-.65-2.468-.433-3.927-.671-4.377-.715-.537-.065-.773-.173-.73-.325.129-.411.365-1.04.708-1.82h.074c.236-.302.998-.74 2.287-1.278l4.634-2.014c-.257-.26-.922-.715-2.017-1.409-.965-.606-1.545-1.061-1.695-1.321-.257-.412-.386-.91-.386-1.473 0-.455.064-.824.193-1.127.472-.931 1.159-1.451 2.017-1.581.386-.044.858-.065 1.395-.065 1.845 0 4.377.281 7.638.845 2.532.411 4.249.758 5.193 1.018.257.086.343.195.3.346l-.579 1.56c-.107.26-.257.434-.43.52-2.638 1.105-5.835 2.427-9.59 3.986-.086.044-.15.239-.15.607 0 .997-.065 1.517-.172 1.517-.129 0-.343-.499-.644-1.495-.021-.109-.107-.152-.236-.109-.888.406-1.964.896-3.248 1.49 2.133.47 4.81.854 8.033 1.153 2.425.217 4.163.325 5.257.325.3 0 .43.13.322.39l-.665 1.82c-.086.195-.172.282-.3.282-.945 0-3.863.628-8.798 1.928-2.297.597-4.19 1.124-5.679 1.577 1.305.396 2.188.71 2.632.958.751.411 1.137.953 1.137 1.668 0 .498-.171 1.105-.515 1.82a6.52 6.52 0 0 1-1.545 2.144c-1.244 1.127-3.154 2.297-5.707 3.445-2.66 1.235-4.742 1.841-6.244 1.841-2.06 0-3.605-.693-4.635-2.08-.88-1.126-1.309-2.599-1.309-4.44 0-2.947.687-5.503 2.082-7.691.046-.072.09-.139.132-.199zm61.575-8.64c-.008.127-.03.28-.062.455-.171.931-.257 1.754-.257 2.534 0 2.968.622 4.463 1.845 4.463.536 0 .987-.39 1.33-1.191.215-.52.494-1.474.794-2.882.365-1.56.665-2.708.923-3.423.3-.823.644-1.56 1.073-2.21.472-.714.858-1.083 1.201-1.083.28 0 .43.304.43.91 0 .477-.15 1.495-.43 2.99-.279 1.516-.407 2.535-.407 3.055 0 1.126.236 2.014.686 2.643.472.65 1.116.953 1.953.953.326 0 .635-.023.927-.068a1335.64 1335.64 0 0 0-.412-5.478c-.515-6.673-.751-10.377-.751-11.114 0-.845-.129-1.56-.386-2.101 0-.347.236-1.084.73-2.189.085-.26.214-.26.321 0 .15.304.472 1.127.966 2.492.536 1.408.858 2.296.944 2.621.064.239.107.434.107.542 0 .39-.386.151-1.116-.693-.086-.13-.129-.065-.129.151 0 .087.236 3.077.708 8.99.209 2.6.371 4.695.487 6.28.384-.222.716-.51.994-.863.58-.737.88-1.668.88-2.773 0-1.062-.086-2.08-.258-3.076-.128-.694-.3-1.344-.493-1.972-.193-.541-.28-.801-.28-.78 0-.606.215-1.43.602-2.47.085-.238.15-.346.214-.346.065 0 .15.152.3.455.558 1.17.988 2.968 1.31 5.394.321 2.253.75 3.878 1.33 4.853.558.975 1.437 1.452 2.596 1.452.987 0 1.63-.347 1.931-1.062 0-.238-.193-.78-.622-1.581-.515-1.04-.88-1.885-1.094-2.557a22.06 22.06 0 0 1-.923-3.791c-.043-.455-.086-.737-.129-.845-.043-.26-.171-.498-.343-.737.129-.411.322-.975.58-1.711.085-.195.15-.303.235-.303.065 0 .172.108.322.303a46.19 46.19 0 0 1 1.738 2.621c.193.304.3.542.3.672 0 .087-.042.13-.15.13-.171 0-.472-.13-.922-.433-.043 0-.086.043-.108.108.15.563.408 1.343.751 2.361.794 2.253 1.18 3.9 1.18 4.918 0 1.04-.15 1.95-.45 2.708-.515 1.3-1.395 1.95-2.64 1.95-1.33 0-2.381-.563-3.153-1.733-.451-.693-.859-1.755-1.223-3.142-.15 1.409-.601 2.622-1.33 3.618a4.848 4.848 0 0 1-.979 1.036c.037.595.056.987.056 1.174 0 2.037-.322 3.856-.945 5.416a5.555 5.555 0 0 1-.321.694c-.108.195-.193.238-.215.086-.043-.151-.021-.498.043-.996.064-.715.107-1.539.107-2.47 0-.394-.059-1.465-.177-3.208-.312.073-.639.11-.981.11-1.524 0-2.597-.737-3.197-2.21-.344-.823-.515-1.798-.515-2.925 0-1.473.171-2.86.515-4.137.107-.325.15-.564.15-.672 0-.065-.022-.108-.065-.108-.043 0-.193.173-.407.52-.344.541-.708 1.624-1.073 3.27-.494 2.146-.816 3.424-.966 3.857-.193.607-.472 1.105-.837 1.473-.3.304-.557.455-.772.455-.987 0-1.738-.628-2.274-1.863-.43-1.04-.644-2.296-.644-3.77 0-1.04.15-2.166.472-3.357.038-.166.075-.3.113-.415-.762-.146-1.143-.938-1.143-2.358 0-1.95.558-4.008 1.674-6.153.279-.52.45-.802.493-.802.022 0 .022 0 .022.022 0 .087-.065.39-.236.888-.73 2.232-1.073 3.813-1.073 4.701 0 1.214.322 1.842.965 1.842.386 0 .816-.477 1.288-1.408a.757.757 0 0 1 .128-.195c.043-.022.065-.022.065.021.021.044.021.13 0 .217-.384 2.15-1.02 3.234-1.89 3.25zM128.66 31c-.386 1.232-.579 2.096-.579 2.61 0 .736.193 1.105.58 1.105.235 0 .493-.282.772-.845.043-.044.064-.087.086-.109.021-.021.043-.021.043 0v.152c-.236 1.3-.623 1.95-1.16 1.95-.557 0-.836-.477-.836-1.43 0-1.074.261-2.165.816-3.322a704.74 704.74 0 0 0-4.442 1.805c.129-.606.386-1.256.73-1.971 5.492-2.058 11.221-4.181 17.208-6.413.214-.086.365-.13.407-.086.065.043.043.151-.042.368-.258.65-.473 1.04-.644 1.17A521.781 521.781 0 0 0 128.658 31zm53.294-9.247c-.024.075-.05.157-.08.245-.73 2.231-1.073 3.813-1.073 4.7 0 1.214.321 1.842.965 1.842.386 0 .815-.476 1.287-1.408a.757.757 0 0 1 .13-.195c.042-.022.064-.022.064.022.021.043.021.13 0 .216-.387 2.167-1.03 3.25-1.91 3.25-.944 0-1.416-.801-1.416-2.383 0-1.95.558-4.007 1.673-6.152a608.023 608.023 0 0 0-13.69 5.437c.13-.607.387-1.256.73-1.971 5.493-2.058 11.222-4.182 17.209-6.413.214-.087.365-.13.408-.087.064.044.042.152-.043.369-.258.65-.472 1.04-.644 1.17-1.158.429-2.36.882-3.61 1.358zm-59.485 2.563c-.061-.12-.095-.4-.095-.845 0-.455-.043-.758-.15-.91-.258.043-.537.412-.838 1.083-.45.975-.793 1.603-1.03 1.928-.429.585-.944.889-1.523.889v-.022c-.3 0-.515-.022-.665-.065 0 1.798-.107 3.185-.322 4.116-.193 1.04-.58 1.842-1.094 2.383-1.438 1.43-3.197 2.687-5.236 3.77-2.617 1.386-5.085 2.08-7.36 2.08-3.282 0-5.557-1.625-6.78-4.875-.257-.628-.364-1.451-.364-2.426 0-.65.042-1.322.15-1.993.15-.975.364-1.842.643-2.6.086-.217.194-.325.28-.325.085 0 .085.151.042.433-.107.477-.214.932-.3 1.387-.172.801-.258 1.408-.258 1.798 0 1.343.43 2.578 1.33 3.704 1.202 1.495 2.94 2.253 5.236 2.253 1.996 0 4.077-.476 6.244-1.43a22.918 22.918 0 0 0 4.828-2.902c1.244-.954 1.952-1.69 2.167-2.167 0-1.473-.408-3.033-1.223-4.701-.172-.325-.236-.563-.236-.737 0-.13.15-.758.494-1.884.064-.195.128-.282.214-.282s.193.13.343.412c.215.52.387.845.515.953.28.303.73.455 1.352.455.558.021 1.094-.325 1.61-.975.193-.282.536-.888 1.03-1.863.343-.65.622-.975.836-.997.215.022.43.217.6.628.173.412.258.889.258 1.387 0 .325-.043.758-.15 1.322-.079.452-.174.757-.276.926.168.08.5.288 1.006.633.665.477.987.737.987.824 0 .281-.28.91-.88 1.863-.064.13-.129.151-.215.108-.643-.52-1.33-.975-2.016-1.43-.043-.021-.043-.065 0-.151l.836-1.734a.432.432 0 0 1 .01-.021zm-75.667 19a5.576 5.576 0 0 0 1.397-.833c.203-.374.334-.554.406-.554.021.022.021.043.021.065a.676.676 0 0 1-.004.076c.515-.592.777-1.298.777-2.113 0-.758-.193-3.726-.558-8.925-.386-5.221-.558-8.298-.558-9.23 0-.844-.15-1.537-.408-2.08 0-.302.236-1.039.73-2.209.043-.13.107-.195.15-.195.064 0 .107.065.193.238.129.282.45 1.127.966 2.47.515 1.43.837 2.275.944 2.6.043.26.086.455.086.563 0 .39-.365.152-1.095-.693-.085-.13-.128-.065-.128.152 0 .065.15 2.383.493 6.954.322 4.593.494 7.322.494 8.21 0 1.452-.258 2.839-.773 4.182-.568 1.54-1.385 2.651-2.439 3.333-.218.756-.329 1.37-.329 1.845 0 1.451.73 2.166 2.146 2.166 1.974 0 4.077-.78 6.351-2.361 1.76-1.192 3.133-2.47 4.12-3.835.3-.412.472-.628.472-.65.107-.173.15-.455.15-.823 0-.802-.236-2.123-.686-3.9-.344-1.386-1.18-3.51-2.468-6.369-.043-.065 0-.412.107-1.062.086-.585.15-1.018.236-1.3.065-.324.193-.368.365-.151 1.523 2.015 2.66 4.853 3.39 8.47.365 1.994.73 4.009 1.116 6.023.43 1.95 1.008 3.293 1.738 4.03.708.672 1.416 1.191 2.167 1.56v2.643c-2.081-.867-3.454-2.058-4.163-3.553-.493-1.062-.9-2.882-1.201-5.438-.215 1.257-.644 2.297-1.309 3.098-1.266 1.603-2.832 2.99-4.656 4.16-2.103 1.343-4.034 2.014-5.772 2.014-.923 0-1.61-.368-2.081-1.148-.387-.628-.58-1.43-.58-2.361 0-.93.108-1.846.328-2.747l-.135.06c-1.351.585-2.36 1.019-3.025 1.344-1.309.606-2.21 1.126-2.682 1.494-.901.715-2.21 2.059-3.927 4.052-1.008 1.191-2.038 1.798-3.068 1.798-.88 0-1.63-.39-2.274-1.192-.687-.823-1.009-1.82-1.009-2.99 0-1.646.644-3.769 1.974-6.369.15-.281.258-.411.343-.411.022 0 .043.043.043.108 0 .26-.279 1.17-.858 2.73-.58 1.56-.88 2.794-.88 3.704 0 .715.172 1.257.494 1.668.343.455.815.672 1.437.672 1.073 0 2.146-.542 3.262-1.646.687-.845 1.395-1.669 2.081-2.513.923-1.019 2.103-1.95 3.584-2.752.858-.476 2.36-1.17 4.505-2.08zm70.866.526a.237.237 0 0 1 .006.058c0 .26-.278 1.17-.858 2.73s-.88 2.795-.88 3.705c0 .715.172 1.256.494 1.668.343.455.815.671 1.438.671 1.072 0 2.145-.541 3.261-1.646.687-.845 1.395-1.668 2.081-2.513.923-1.018 2.103-1.95 3.584-2.752.858-.476 2.36-1.17 4.506-2.08.836-.346 1.995-.823 3.454-1.45-1.159-1.279-2.21-1.907-3.154-1.907-.622 0-1.094.086-1.416.281a.516.516 0 0 1-.28.087c-.085 0-.15-.043-.15-.173 0-.065.022-.174.086-.282l.773-1.841c.15-.347.901-.672 2.253-.975a16.77 16.77 0 0 1 3.776-.455c1.116 0 2.296.195 3.476.585.88.303 1.588.628 2.125.975.343.238.536.433.536.541 0 .087-.064.238-.172.433l-.88 1.604c-.75.303-1.802.78-3.175 1.473.687.671 1.824.996 3.39.996v2.643c-1.18 0-2.06-.086-2.596-.303-.687-.303-1.695-1.018-3.026-2.188-.686.433-2.381 1.213-5.02 2.34-1.352.585-2.36 1.018-3.026 1.343-1.309.607-2.21 1.126-2.682 1.495-.901.715-2.21 2.058-3.927 4.051-1.008 1.192-2.038 1.798-3.068 1.798-.88 0-1.63-.39-2.274-1.191-.687-.824-1.009-1.82-1.009-2.99 0-1.647.644-3.77 1.974-6.37.082-.154.152-.262.212-.33-1.643.344-3.46 1.541-5.426 3.58-.73.759-1.695 1.885-2.896 3.358-1.03 1.322-1.803 2.188-2.318 2.622-.772.715-1.545 1.061-2.317 1.061-.88 0-1.63-.39-2.275-1.17-.686-.823-1.008-1.82-1.008-3.011 0-1.625.644-3.748 1.974-6.37.15-.26.257-.411.343-.411.022.022.043.043.043.108 0 .26-.279 1.192-.858 2.752-.58 1.56-.88 2.794-.88 3.704 0 .694.172 1.257.494 1.668.343.455.815.672 1.437.672.923 0 2.06-.715 3.433-2.166 1.16-1.365 2.318-2.73 3.476-4.095 2.919-3.358 5.493-5.048 7.746-5.048.987.022 1.76.26 2.34.78.471.412.707.888.707 1.365 0 .715-.129 1.343-.365 1.863-.085.195-.15.303-.171.303-.043 0-.129-.108-.236-.303-.494-.888-1.245-1.343-2.275-1.343v-.022c-.262 0-.529.024-.8.072zm26.219 1.553c-.576.561-1.21.845-1.902.845v-2.665c.815.022 1.63-.325 2.425-.975.214-.195.343-.888.343-2.101 0-.758-.193-3.726-.558-8.926-.386-5.22-.558-8.297-.558-9.229 0-.845-.15-1.538-.407-2.08 0-.303.236-1.04.73-2.21.063-.13.106-.194.15-.194.064 0 .128.065.192.238.15.282.472 1.127.966 2.47.515 1.43.837 2.275.944 2.6.043.26.086.454.086.563 0 .39-.365.151-1.094-.693-.086-.13-.13-.065-.13.151 0 .065.151 2.383.494 6.954.322 4.593.494 7.323.494 8.211 0 2.557-.472 4.571-1.373 6.023-.051.081-.103.16-.155.237a8.944 8.944 0 0 0-.103 1.258c0 1.43.687 2.145 2.06 2.145 1.974 0 4.077-.78 6.351-2.34 1.76-1.213 3.133-2.492 4.12-3.835.3-.433.472-.65.472-.65.107-.195.15-.455.15-.823 0-.823-.236-2.123-.686-3.921-.344-1.387-1.18-3.51-2.468-6.348-.043-.087 0-.433.107-1.083.086-.585.15-1.018.236-1.3.065-.303.193-.368.365-.152 1.524 2.037 2.66 4.875 3.39 8.471.322 1.603.73 3.856 1.223 6.738.193 1.235.601 2.036 1.202 2.426.3.195.772.303 1.416.303v2.644c-.944 0-1.674-.195-2.189-.585-.73-.564-1.244-1.582-1.502-3.098-.085-.542-.257-1.582-.493-3.163-.215 1.256-.644 2.296-1.309 3.098-1.266 1.603-2.832 2.99-4.656 4.16-2.103 1.342-4.034 2.036-5.772 2.036-.923 0-1.61-.39-2.081-1.17-.386-.629-.58-1.408-.58-2.362 0-.552.033-1.108.1-1.668zm26.657 2.058c-1.566 0-2.36-.91-2.424-2.73 0-.086-.043-.151-.13-.151-.15 0-.278.087-.428.26-.859 1.018-1.438 1.646-1.695 1.863-1.095.953-2.253 1.452-3.476 1.452v-2.665c1.265.021 2.381-.325 3.347-1.018.386-.26 1.266-1.084 2.618-2.448.15-.152.3-.217.45-.217.172 0 .258.087.258.238 0 .087-.022.217-.065.39a1.793 1.793 0 0 0-.064.39c0 .498.129.932.343 1.3.28.455.708.693 1.266.693v-.021c1.781.021 3.326-.304 4.613-.91a8.226 8.226 0 0 1-2.703-2.34c-.944-1.235-1.416-2.6-1.416-4.073 0-1.473.515-2.686 1.545-3.618 1.18-1.083 2.596-1.646 4.248-1.646 1.051 0 2.103.216 3.197.65.858.346 1.566.714 2.103 1.148.429.346.644.563.644.628 0 .043-.022.065-.065.065-.107 0-.279-.043-.58-.152-.9-.238-1.909-.368-3.067-.368-1.588 0-3.133.217-4.592.65-1.416.433-2.189.867-2.318 1.3.172 1.148.859 2.383 2.082 3.704 1.437 1.517 2.982 2.297 4.591 2.297.494 0 1.545-.368 3.133-1.062 3.069-1.365 4.678-2.08 4.807-2.144.278-.109.45-.13.514-.087.065.065.022.238-.107.498l-.858 1.798a.85.85 0 0 1-.45.412c-1.224.498-2.812 1.191-4.786 2.101-3.09 1.43-4.677 2.167-4.806 2.21-2.339 1.062-4.248 1.603-5.729 1.603zM148.7 22.431c0-.845-.129-1.538-.386-2.101 0-.304.236-1.04.73-2.189.064-.151.107-.216.15-.216.042 0 .107.086.193.238.128.282.45 1.127.965 2.47.537 1.408.837 2.296.923 2.621.064.239.107.433.107.542 0 .39-.365.151-1.116-.693-.085-.13-.128-.065-.128.151 0 .087.193 2.795.579 8.146.386 5.33.58 8.34.58 9.012 0 2.058-.323 3.857-.945 5.416-.129.325-.236.542-.3.694-.129.216-.193.238-.236.086-.022-.151-.022-.498.043-.996.086-.715.128-1.538.128-2.47 0-.845-.214-4.333-.643-10.442-.43-6.11-.644-9.532-.644-10.269zm-9.484 17.591c-.58-.411-1.63-.628-3.154-.628-.43 0-.815.043-1.137.108 1.03.715 1.738 1.257 2.081 1.647a66.205 66.205 0 0 1 2.21-1.127zm-37.292 3.727l-.858 1.798a.85.85 0 0 1-.45.411c-1.224.499-2.812 1.192-4.786 2.102-3.09 1.43-4.677 2.166-4.806 2.21-2.339 1.061-4.248 1.603-5.729 1.603v-2.665c1.781.022 3.326-.303 4.613-.91a8.226 8.226 0 0 1-2.703-2.34c-.944-1.234-1.416-2.6-1.416-4.072 0-1.474.515-2.687 1.544-3.618 1.18-1.084 2.597-1.647 4.249-1.647 1.051 0 2.103.217 3.197.65.858.347 1.566.715 2.103 1.148.429.347.643.563.643.628 0 .044-.021.065-.064.065-.107 0-.279-.043-.58-.151-.9-.238-1.909-.368-3.068-.368-1.587 0-3.132.216-4.591.65-1.416.433-2.189.866-2.318 1.3.172 1.148.859 2.382 2.082 3.704 1.437 1.516 2.982 2.296 4.591 2.296.494 0 1.545-.368 3.133-1.061 3.068-1.365 4.678-2.08 4.806-2.145.28-.108.451-.13.515-.087.065.065.022.239-.107.499zm-16.65 8.124c-1.889 0-2.876-.91-2.961-2.708-1.266.671-2.725 1.3-4.378 1.863-2.36.78-4.506 1.17-6.415 1.17-2.446 0-4.141-.195-5.128-.585v-2.665c.815.412 2.553.607 5.192.607 3.648 0 7.51-.975 11.565-2.947.13-.065.236-.108.28-.086.064.021.085.13.064.281a6.887 6.887 0 0 0-.086.997c0 .953.622 1.43 1.867 1.43v2.643zM52.938 22.279c0-.845-.129-1.538-.386-2.101 0-.303.236-1.04.73-2.188.064-.152.107-.217.15-.217s.107.087.193.238c.129.282.45 1.127.965 2.47.537 1.408.837 2.297.923 2.622.064.238.107.433.107.541 0 .39-.365.152-1.116-.693-.085-.13-.128-.065-.128.152 0 .086.193 2.794.58 8.145.385 5.33.578 8.341.578 9.013 0 2.058-.321 3.856-.944 5.416-.128.325-.236.541-.3.693-.129.217-.193.238-.236.087-.022-.152-.022-.499.043-.997.086-.715.129-1.538.129-2.47 0-.845-.215-4.332-.644-10.442-.43-6.11-.644-9.532-.644-10.269zm-18.324-.585c0-.845-.129-1.538-.386-2.101 0-.303.236-1.04.73-2.188.064-.152.107-.217.15-.217.042 0 .107.087.193.238.128.282.45 1.127.965 2.47.537 1.408.837 2.297.923 2.622.064.238.107.433.107.541 0 .39-.365.152-1.116-.693-.085-.13-.128-.065-.128.152 0 .086.193 2.794.579 8.145.386 5.33.58 8.341.58 9.013 0 2.058-.323 3.856-.945 5.416-.129.325-.236.541-.3.693-.129.217-.193.238-.236.087-.022-.152-.022-.499.043-.997.085-.715.128-1.538.128-2.47 0-.844-.214-4.332-.643-10.442-.43-6.11-.644-9.532-.644-10.269zm-6.265 7.28c.407-.174.6-.26.6-.304 0-.043-.279-.151-.836-.281-.987-.217-2.34-.434-4.12-.65-2.039-.26-3.67-.39-4.892-.39-1.245 0-1.889.13-1.889.39 0 .108.15.281.451.52.687.476 1.352.953 2.017 1.408 1.223.888 1.974 1.473 2.189 1.776a594.624 594.624 0 0 1 6.48-2.47zm135.07 23.809c-.042-.022-.042-.065 0-.152l.837-1.733c.043-.108.108-.152.172-.152.086 0 .45.217 1.116.672.665.476.987.736.987.823 0 .282-.28.91-.88 1.863-.064.13-.129.152-.215.109-.643-.52-1.33-.975-2.017-1.43zm-40.381-12.566c-.043-.021-.043-.065 0-.151l.836-1.733c.043-.109.108-.152.172-.152.086 0 .45.217 1.116.672.665.476.987.736.987.823 0 .281-.279.91-.88 1.863-.064.13-.129.152-.214.108-.644-.52-1.33-.975-2.017-1.43zM29.7 33.848c-.043-.022-.043-.065 0-.152l.837-1.733c.043-.108.107-.151.172-.151.086 0 .45.216 1.116.671.665.477.987.737.987.823 0 .282-.28.91-.88 1.864-.064.13-.129.151-.215.108-.643-.52-1.33-.975-2.017-1.43zm79.562 7.128c-.043-.022-.043-.065 0-.152l.837-1.733c.043-.109.107-.152.172-.152.086 0 .45.217 1.116.672.665.476.987.736.987.823 0 .282-.28.91-.88 1.863-.064.13-.129.152-.215.108-.643-.52-1.33-.974-2.017-1.43zm2.661 12.868l.665-1.386c.065-.109.129-.152.172-.152.086 0 .472.217 1.137.672.665.476.987.736.987.823 0 .282-.279.91-.88 1.863-.064.108-.128.152-.214.087a59.14 59.14 0 0 0-1.953-1.344c-.236.542-.472 1.019-.73 1.409-.064.13-.128.151-.214.108a21.35 21.35 0 0 0-2.017-1.43c-.043-.022-.043-.087 0-.151l.837-1.734c.043-.108.107-.173.172-.173.064 0 .386.195.944.585.558.368.922.65 1.094.823zm-5.579-27.405c-.043-.022-.043-.065 0-.152l.837-1.733c.043-.108.107-.152.172-.152.086 0 .45.217 1.115.672.666.477.987.737.987.823 0 .282-.278.91-.88 1.863-.064.13-.128.152-.214.109-.644-.52-1.33-.975-2.017-1.43zm-26.95 27.015c-.042-.021-.042-.065 0-.151l.837-1.734c.043-.108.108-.151.172-.151.086 0 .45.216 1.116.671.665.477.987.737.987.824 0 .281-.28.91-.88 1.863-.064.13-.129.151-.215.108-.643-.52-1.33-.975-2.017-1.43zm100.333-.021c.858 0 1.802-.152 2.79-.455.278-.087.428-.109.428-.065 0 .021-.107.151-.322.325-.88.78-1.995 1.191-3.368 1.191-.43 0-.773-.13-1.052-.346a1.083 1.083 0 0 1-.386-.845c0-.932.386-1.885 1.159-2.882-.687-.216-1.03-.563-1.03-1.083 0-.455.279-.975.815-1.603.558-.607.987-.91 1.33-.91.086 0 .172.065.258.195.107.152.15.303.15.455 0 .087-.107.238-.279.52-.193.26-.279.368-.3.303-.065-.281-.236-.411-.472-.411-.108 0-.258.108-.45.303-.173.216-.258.411-.258.541.214.369.579.564 1.115.564.172 0 .451-.174.816-.499.214-.195.45-.411.665-.628.086-.043.129 0 .129.195 0 .412-.15.823-.45 1.235-1.138.78-1.996 1.69-2.554 2.708-.108.195-.15.368-.15.498 0 .455.472.694 1.416.694zm-15.084-19.715c1.223.91 1.78 1.82 1.716 2.73-.086.975-.215 1.581-.408 1.82-.536.736-1.201 1.104-1.995 1.104-.773 0-1.159-.476-1.159-1.43 0-.194.043-.433.086-.671.129-.802.494-1.906 1.094-3.358.515-1.235.773-2.253.773-3.098 0-1.646-.773-3.25-2.275-4.766-.107-.13-.128-.26-.043-.39l.515-.932c.043-.086.13-.086.236 0 1.502 1.257 2.275 3.055 2.275 5.395 0 1.105-.28 2.318-.815 3.596zm1.18 3.141c0-.346-.601-.845-1.803-1.516-.386.693-.558 1.343-.558 1.928 0 .347.15.542.494.542.3 0 .665-.109 1.051-.325.386-.217.665-.412.816-.629zm-.28-18.653c.494 0 .945.282 1.331.867s.644 1.343.815 2.296a.703.703 0 0 1 .022.174c.021.021.021.021.043 0a.59.59 0 0 1 .064-.174c.086-.563.258-1.408.58-2.534.321-.802.686-1.192 1.072-1.192.215 0 .408.13.601.412.193.238.279.433.279.585 0 .108-.043.26-.107.433-.065.26-.172.39-.258.39-.043 0-.15-.108-.3-.303s-.3-.282-.45-.282c-.344 0-.687.823-.966 2.491-.15.737-.28 1.257-.45 1.539-.108.216-.194.325-.28.325-.064 0-.107-.109-.107-.282 0-.303-.172-.867-.494-1.712-.321-.844-.557-1.256-.708-1.256-.086 0-.15.022-.193.087-.021.065-.086.108-.236.108-.129 0-.322-.108-.58-.347-.235-.216-.342-.39-.342-.52 0-.065.085-.26.3-.606.193-.347.322-.499.365-.499zm-6.115 2.882c-.815-.412-1.223-.867-1.223-1.322 0-.563.258-1.083.773-1.56.515-.455.944-.628 1.287-.498.28.087.43.412.43.932 0 .455-.108.996-.301 1.56.43.238.687.454.772.628 0 .216-.171.585-.536 1.105-.107-.152-.365-.369-.75-.607-.452.65-1.03 1.213-1.739 1.733-.794.607-1.502 1.04-2.167 1.343-.15.065-.923.369-2.317.889-.215.086-.365.13-.43.13-.042 0-.042-.022-.042-.044 0-.043.107-.151.364-.303 1.03-.628 2.06-1.257 3.09-1.863 1.245-.758 2.167-1.473 2.79-2.123zm.494-1.127c.086-.26.086-.52.043-.78-.043-.281-.172-.411-.365-.411-.107 0-.236.043-.408.13-.15.108-.236.195-.236.281 0 .195.322.455.966.78zm-2.081 32.15c.043-.043.064-.087.086-.108.021-.022.042-.022.042 0v.151c-.236 1.3-.622 1.95-1.158 1.95-.558 0-.837-.476-.837-1.43 0-1.191.322-2.404 1.008-3.704.15-.304.258-.477.3-.477 0 .065-.042.238-.15.542-.429 1.343-.643 2.275-.643 2.816 0 .737.193 1.105.58 1.105.235 0 .493-.282.772-.845zm15.427.238c.043-.043.065-.086.086-.108.021-.022.043-.022.043 0v.152c-.236 1.3-.622 1.95-1.159 1.95-.558 0-.837-.477-.837-1.43 0-1.192.322-2.405 1.009-3.705.15-.303.257-.477.3-.477 0 .065-.043.239-.15.542-.43 1.343-.644 2.275-.644 2.816 0 .737.193 1.105.58 1.105.236 0 .493-.281.772-.845zm-37.42.867c.858 0 1.802-.152 2.789-.455.279-.087.429-.108.429-.065 0 .022-.107.152-.322.325-.88.78-1.995 1.192-3.369 1.192-.429 0-.772-.13-1.051-.347a1.083 1.083 0 0 1-.386-.845c0-.932.386-1.885 1.158-2.881-.686-.217-1.03-.564-1.03-1.084 0-.455.28-.974.816-1.603.558-.606.987-.91 1.33-.91.086 0 .172.065.258.195.107.152.15.304.15.455 0 .087-.107.239-.28.52-.192.26-.278.369-.3.304-.064-.282-.236-.412-.472-.412-.107 0-.257.108-.45.303-.172.217-.258.412-.258.542.215.368.58.563 1.116.563.172 0 .45-.173.816-.498.214-.195.45-.412.665-.628.085-.044.128 0 .128.195 0 .411-.15.823-.45 1.234-1.137.78-1.996 1.69-2.554 2.708-.107.195-.15.369-.15.499 0 .455.472.693 1.416.693zm4.977-20.321c.022-.065.065-.13.108-.152.021-.043.043-.021.043 0 .021.044.021.108 0 .195-.322 1.733-.816 2.6-1.545 2.6-.751 0-1.116-.65-1.116-1.928 0-1.56.43-3.207 1.33-4.918.236-.433.365-.65.408-.65h.021c0 .087-.064.325-.193.737-.579 1.798-.858 3.054-.858 3.77 0 .974.258 1.472.772 1.472.3 0 .644-.39 1.03-1.126zm-6.759-14.32c.494 0 .945.281 1.33.866.387.585.645 1.343.816 2.297a.703.703 0 0 1 .022.173c.021.022.021.022.043 0a.59.59 0 0 1 .064-.173c.086-.564.257-1.408.58-2.535.321-.802.686-1.192 1.072-1.192.215 0 .408.13.6.412.194.238.28.433.28.585 0 .108-.043.26-.107.433-.065.26-.172.39-.258.39-.043 0-.15-.108-.3-.303s-.3-.282-.45-.282c-.344 0-.688.824-.966 2.492-.15.736-.28 1.256-.451 1.538-.107.217-.193.325-.279.325-.064 0-.107-.108-.107-.282 0-.303-.172-.866-.494-1.711-.322-.845-.558-1.257-.708-1.257-.086 0-.15.022-.193.087-.021.065-.086.108-.236.108-.129 0-.322-.108-.58-.346-.235-.217-.343-.39-.343-.52 0-.065.086-.26.3-.607.194-.347.323-.498.365-.498zm-3.819 3.943c.022-.065.065-.13.107-.152.022-.043.043-.022.043 0 .022.043.022.108 0 .195-.321 1.733-.815 2.6-1.545 2.6-.75 0-1.115-.65-1.115-1.928 0-1.56.429-3.207 1.33-4.918.236-.434.365-.65.408-.65h.021c0 .086-.064.325-.193.736-.58 1.799-.858 3.055-.858 3.77 0 .975.257 1.473.772 1.473.3 0 .644-.39 1.03-1.126zm-.73 29.853c.044-.043.065-.087.086-.108.022-.022.043-.022.043 0v.151c-.236 1.3-.622 1.95-1.158 1.95-.558 0-.837-.476-.837-1.43 0-1.191.322-2.404 1.008-3.704.15-.304.258-.477.3-.477 0 .065-.042.238-.15.542-.429 1.343-.643 2.274-.643 2.816 0 .737.193 1.105.58 1.105.235 0 .493-.282.772-.845zm-15.942-23.16c.043-.042.065-.086.086-.107.021-.022.043-.022.043 0v.151c-.236 1.3-.622 1.95-1.159 1.95-.558 0-.837-.477-.837-1.43 0-1.191.322-2.405 1.009-3.704.15-.304.257-.477.3-.477 0 .065-.043.238-.15.542-.429 1.343-.644 2.274-.644 2.816 0 .737.194 1.105.58 1.105.236 0 .493-.282.772-.845zm-9.505 1.842c.043-.043.064-.086.086-.108.021-.022.043-.022.043 0v.152c-.236 1.3-.623 1.95-1.16 1.95-.557 0-.836-.477-.836-1.43 0-1.192.322-2.405 1.009-3.705.15-.303.257-.477.3-.477 0 .065-.043.239-.15.542-.43 1.343-.644 2.275-.644 2.816 0 .737.193 1.105.58 1.105.235 0 .493-.281.772-.845zm1.673-10.182c-.815-.412-1.223-.866-1.223-1.321 0-.564.258-1.084.773-1.56.515-.455.944-.628 1.287-.499.28.087.43.412.43.932 0 .455-.108.997-.301 1.56.43.238.687.455.772.628 0 .217-.171.585-.536 1.105-.107-.152-.365-.368-.751-.607-.45.65-1.03 1.214-1.738 1.734-.794.606-1.502 1.04-2.167 1.343-.15.065-.923.368-2.317.888-.215.087-.365.13-.43.13-.042 0-.042-.022-.042-.043 0-.044.107-.152.364-.304 1.03-.628 2.06-1.256 3.09-1.863 1.245-.758 2.167-1.473 2.79-2.123zm.494-1.126c.086-.26.086-.52.043-.78-.043-.282-.172-.412-.365-.412-.107 0-.236.043-.408.13-.15.108-.236.195-.236.282 0 .195.322.455.966.78zm-7.832 32.821c.043-.043.065-.087.086-.108.021-.022.043-.022.043 0v.151c-.236 1.3-.622 1.95-1.159 1.95-.558 0-.837-.476-.837-1.43 0-1.191.322-2.404 1.009-3.704.15-.304.257-.477.3-.477 0 .065-.043.238-.15.542-.429 1.343-.644 2.274-.644 2.816 0 .737.194 1.105.58 1.105.236 0 .493-.282.772-.845zm-17.037-31.63c0 .347-.085.715-.236 1.083-.193.477-.45.715-.772.715-.494 0-.858-.346-1.073-1.04-.236.867-.665 1.322-1.309 1.322-.236 0-.429-.13-.6-.368-.215-.282-.3-.65-.3-1.105v-1.084c0-.086-.065-.151-.194-.173-.129-.043-.172-.13-.172-.281 0-.239.086-.477.3-.715.194-.195.323-.282.43-.304.129.022.193.239.193.715 0 .26-.021.455-.064.629a1.767 1.767 0 0 0-.065.433c0 .26.043.498.15.736.13.26.28.412.472.412.237 0 .451-.108.666-.325.214-.217.321-.477.321-.758 0-.174-.064-.455-.15-.867-.107-.39-.15-.65-.15-.736 0-.087.043-.239.129-.412.086-.195.15-.282.193-.303.086.021.193.281.322.823.129.52.193.932.193 1.17 0 .758.279 1.126.837 1.126.236 0 .386-.13.45-.368-.493-.866-.73-1.538-.73-1.993 0-.26.065-.498.194-.693.086-.152.15-.217.193-.217.021 0 .064.087.064.26.043.238.086.455.13.607 0 .021.128.325.364.91.129.346.214.628.214.801zm-30.94 32.778c3.304-1.235 6.737-2.513 10.32-3.856.15-.043.236-.065.258-.043.021.021.021.086-.022.216-.171.39-.3.629-.386.694a364.523 364.523 0 0 0-10.6 4.18c.086-.368.237-.757.43-1.19zm35.125-27.318c4.398-1.647 8.99-3.358 13.775-5.157.172-.065.279-.086.322-.065.043.022.043.13-.043.282-.193.52-.365.845-.494.953a438.827 438.827 0 0 0-14.14 5.568c.108-.498.3-1.018.58-1.581zm-1.46-7.995c.494 0 .945.282 1.33.867.387.585.645 1.343.816 2.296a.703.703 0 0 1 .022.174c.021.021.021.021.043 0a.59.59 0 0 1 .064-.174c.086-.563.257-1.408.58-2.534.321-.802.686-1.192 1.072-1.192.215 0 .408.13.6.412.194.238.28.433.28.585 0 .108-.043.26-.107.433-.065.26-.172.39-.258.39-.043 0-.15-.108-.3-.303s-.3-.282-.45-.282c-.344 0-.688.823-.966 2.491-.15.737-.28 1.257-.451 1.539-.107.216-.193.325-.279.325-.064 0-.107-.109-.107-.282 0-.303-.172-.867-.494-1.712s-.558-1.256-.708-1.256c-.086 0-.15.022-.193.087-.021.065-.086.108-.236.108-.129 0-.322-.108-.58-.347-.235-.216-.343-.39-.343-.52 0-.065.086-.26.3-.606.194-.347.323-.499.365-.499zm8.497 13.302c.043-.065.086-.13.108-.173.043-.022.064-.022.064.022.022.043.022.108 0 .195-.343 1.906-.901 2.881-1.695 2.881-.837 0-1.245-.715-1.245-2.123 0-1.733.494-3.531 1.481-5.438.236-.476.386-.715.43-.715h.02c0 .109-.064.368-.214.802-.622 1.993-.944 3.38-.944 4.181 0 1.083.279 1.625.858 1.625.343 0 .708-.412 1.137-1.257zm1.245-12.847c0 .434-.193.954-.558 1.517a5.5 5.5 0 0 1-1.459 1.538c-.236.173-.386.26-.43.26v-.022c0-.043.087-.173.301-.39.987-1.061 1.48-1.776 1.48-2.144 0-.325-.17-.499-.493-.499a.912.912 0 0 0-.472.13c-.107.065-.171.109-.193.109-.021-.022-.043-.022-.064-.044 0-.021.021-.108.043-.26.171-.736.536-1.105 1.115-1.105.472 0 .73.304.73.91zm27.014 17.137c.043-.044.064-.087.086-.108.021-.022.043-.022.043 0v.151c-.236 1.3-.622 1.95-1.159 1.95-.558 0-.837-.477-.837-1.43 0-1.191.322-2.405 1.009-3.705.15-.303.257-.476.3-.476 0 .065-.043.238-.15.541-.43 1.344-.644 2.275-.644 2.817 0 .736.193 1.105.58 1.105.236 0 .493-.282.772-.845zm-13.797 9.554c.043-.044.065-.087.086-.109.022-.021.043-.021.043 0v.152c-.236 1.3-.622 1.95-1.159 1.95-.557 0-.836-.477-.836-1.43 0-1.191.321-2.405 1.008-3.705.15-.303.258-.476.3-.476 0 .065-.042.238-.15.541-.429 1.344-.643 2.275-.643 2.817 0 .736.193 1.105.579 1.105.236 0 .493-.282.772-.845zm-41.69-26.994c.493 0 .944.282 1.33.867.386.585.644 1.343.815 2.296.022.087.022.152.022.173.021.022.021.022.043 0a.59.59 0 0 1 .064-.173c.086-.563.258-1.408.58-2.535.321-.801.686-1.191 1.072-1.191.215 0 .408.13.601.411.193.239.279.434.279.585 0 .109-.043.26-.107.434-.065.26-.172.39-.258.39-.043 0-.15-.109-.3-.304s-.3-.281-.45-.281c-.344 0-.687.823-.966 2.491-.15.737-.28 1.257-.45 1.538-.108.217-.194.325-.28.325-.064 0-.107-.108-.107-.281 0-.304-.172-.867-.494-1.712s-.558-1.256-.708-1.256c-.086 0-.15.021-.193.086-.021.065-.086.108-.236.108-.129 0-.322-.108-.58-.346-.235-.217-.343-.39-.343-.52 0-.065.086-.26.3-.607.194-.346.323-.498.366-.498zm14.075 26.214c.043-.043.065-.087.086-.108.022-.022.043-.022.043 0v.151c-.236 1.3-.622 1.95-1.159 1.95-.557 0-.836-.477-.836-1.43 0-1.191.321-2.405 1.008-3.704.15-.304.258-.477.3-.477 0 .065-.042.238-.15.542-.429 1.343-.643 2.274-.643 2.816 0 .736.193 1.105.579 1.105.236 0 .493-.282.772-.845zm-9.999.238c.043-.043.065-.086.086-.108.022-.022.043-.022.043 0v.152c-.236 1.3-.622 1.95-1.158 1.95-.558 0-.837-.477-.837-1.43 0-1.192.322-2.405 1.008-3.705.15-.303.258-.477.3-.477 0 .065-.042.239-.15.542-.429 1.343-.643 2.275-.643 2.816 0 .737.193 1.105.579 1.105.236 0 .494-.282.772-.845zM5.948 23.298c-.108-.499-.322-1.127-.623-1.842-.3-.758-.536-1.148-.665-1.148-.086 0-.15.022-.193.087-.021.064-.086.108-.236.108-.129 0-.322-.108-.58-.347-.235-.216-.343-.39-.343-.52 0-.065.086-.26.3-.606.194-.347.323-.499.366-.499.493 0 .944.282 1.33.867.386.585.644 1.343.815 2.296a.703.703 0 0 1 .022.174c.021.021.021.021.043 0a.59.59 0 0 1 .064-.174c.086-.563.258-1.408.58-2.534.321-.802.686-1.192 1.072-1.192.215 0 .408.13.601.412.193.238.279.433.279.585 0 .108-.043.26-.107.433-.065.26-.172.39-.258.39-.043 0-.15-.108-.3-.303s-.3-.282-.45-.282c-.344 0-.687.823-.966 2.491-.13.629-.28 1.149-.451 1.539.279.043.644.238 1.094.606.45.368.687.672.73.932.021.086-.043.26-.172.563-.129.282-.236.433-.279.455-.429.13-.858.238-1.287.368-.537.174-.901.369-1.116.607.6 1.82.901 3.618.901 5.394 0 .52-.064 1.04-.171 1.582-.043.195-.086.281-.108.303-.043 0-.064-.325-.064-.932 0-1.018-.15-2.253-.45-3.704-.301-1.43-.451-2.253-.451-2.47 0-.715.193-1.235.6-1.581.194-.152.558-.304 1.073-.477-.214-.217-.407-.325-.622-.325-.086 0-.236.13-.407.347-.172.238-.28.346-.3.346-.044 0-.044-.108-.044-.303.107-.91.365-1.473.773-1.646zm38.665 6.672c0 .347-.086.715-.236 1.083-.193.477-.45.715-.773.715-.493 0-.858-.346-1.072-1.04-.236.867-.666 1.322-1.31 1.322-.235 0-.428-.13-.6-.368-.215-.282-.3-.65-.3-1.105v-1.083c0-.087-.065-.152-.194-.174-.128-.043-.171-.13-.171-.281 0-.239.086-.477.3-.715.193-.195.322-.282.43-.304.128.022.192.239.192.715 0 .26-.021.455-.064.629a1.767 1.767 0 0 0-.064.433c0 .26.043.498.15.736.129.26.279.412.472.412.236 0 .45-.108.665-.325.215-.217.322-.477.322-.758 0-.173-.064-.455-.15-.867-.108-.39-.15-.65-.15-.736 0-.087.042-.239.128-.412.086-.195.15-.282.193-.303.086.021.193.281.322.823.129.52.193.932.193 1.17 0 .758.28 1.126.837 1.126.236 0 .386-.13.45-.368-.493-.866-.729-1.538-.729-1.993 0-.26.065-.498.193-.693.086-.152.15-.217.193-.217.022 0 .065.087.065.26.043.238.086.455.129.607 0 .021.128.325.364.91.13.346.215.628.215.801zm-6.738-3.726c2.725-1.018 5.558-2.08 8.519-3.185.129-.043.193-.065.214-.043.022.022.022.065-.021.173-.129.325-.236.52-.322.585a268.827 268.827 0 0 0-8.754 3.445c.064-.304.193-.628.364-.975zm6.073 13.865c.043-.065.086-.13.107-.173.043-.022.064-.022.064.021.022.044.022.109 0 .195-.343 1.907-.9 2.882-1.695 2.882-.837 0-1.244-.715-1.244-2.123 0-1.734.493-3.532 1.48-5.438.236-.477.387-.715.43-.715h.02c0 .108-.063.368-.214.802-.622 1.993-.944 3.38-.944 4.18 0 1.084.28 1.626.859 1.626.343 0 .708-.412 1.137-1.257zm16.285-17.31c.043-.065.086-.13.108-.173.043-.022.064-.022.064.022.022.043.022.108 0 .195-.343 1.906-.901 2.88-1.695 2.88-.837 0-1.244-.714-1.244-2.122 0-1.733.493-3.531 1.48-5.438.236-.477.386-.715.43-.715h.02c0 .108-.064.368-.214.802-.622 1.993-.944 3.38-.944 4.181 0 1.083.279 1.625.858 1.625.344 0 .708-.412 1.137-1.257zm-19.01.585c-.086.217-.172.325-.236.325-.086 0-.108-.152-.043-.411a5.09 5.09 0 0 0 .086-.932c0-1.235-.687-2.448-2.082-3.683-.086-.065-.086-.173-.021-.282l.386-.693c.043-.065.086-.065.172 0 1.351.997 2.038 2.383 2.038 4.138a4.09 4.09 0 0 1-.3 1.538zm-20.341 23.83c3.304-1.234 6.737-2.512 10.32-3.855.15-.044.236-.065.258-.044.021.022.021.087-.022.217-.171.39-.3.628-.386.693a364.523 364.523 0 0 0-10.6 4.181c.086-.368.236-.758.43-1.191zm.171 5.352l.665-1.386c.065-.109.13-.152.172-.152.086 0 .472.217 1.137.671.665.477.987.737.987.824 0 .281-.279.91-.88 1.863-.064.108-.128.151-.214.086a59.14 59.14 0 0 0-1.953-1.343c-.236.542-.472 1.019-.73 1.408-.063.13-.128.152-.214.109a21.35 21.35 0 0 0-2.017-1.43c-.043-.022-.043-.087 0-.152l.837-1.733c.043-.108.107-.173.172-.173.064 0 .386.195.944.585.558.368.923.65 1.094.823zm6.158-33.991c.494 0 .944.281 1.33.866.387.585.644 1.343.816 2.297a.703.703 0 0 1 .022.173c.021.022.021.022.042 0a.59.59 0 0 1 .065-.173c.086-.564.257-1.408.58-2.535.321-.802.686-1.192 1.072-1.192.215 0 .408.13.6.412.194.238.28.433.28.585 0 .108-.043.26-.108.433-.064.26-.171.39-.257.39-.043 0-.15-.108-.3-.303s-.3-.282-.451-.282c-.343 0-.687.824-.966 2.492-.15.736-.279 1.256-.45 1.538-.107.217-.193.325-.28.325-.064 0-.106-.108-.106-.282 0-.303-.172-.866-.494-1.711-.322-.845-.558-1.257-.708-1.257-.086 0-.15.022-.193.087-.022.065-.086.108-.236.108-.129 0-.322-.108-.58-.346-.236-.217-.343-.39-.343-.52 0-.065.086-.26.3-.607.194-.347.322-.498.365-.498zm-5.729 2.6c.043-.044.065-.087.086-.109.022-.022.043-.022.043 0v.152c-.236 1.3-.622 1.95-1.159 1.95-.557 0-.836-.477-.836-1.43 0-1.192.322-2.405 1.008-3.705.15-.303.258-.477.3-.477 0 .065-.042.239-.15.542-.429 1.343-.643 2.275-.643 2.816 0 .737.193 1.105.579 1.105.236 0 .493-.281.772-.845zm-9.119 5.61c.086-.584.3-1.3.644-2.166.257-.65.386-1.3.386-1.95 0-1.256-.58-2.448-1.738-3.596-.086-.087-.086-.173-.021-.282l.386-.693c.043-.065.086-.065.172 0 1.137.932 1.716 2.297 1.716 4.051 0 .845-.193 1.733-.558 2.687-.365.953-.558 1.603-.558 1.971 0 .737.193 1.105.58 1.105.236 0 .493-.282.772-.845.043-.043.065-.087.086-.108.021-.022.043-.022.043 0 .021.021.021.065 0 .13-.236 1.3-.622 1.95-1.159 1.95-.536 0-.815-.542-.815-1.604 0-.195.021-.411.064-.65zm32.593 25.586c.043-.043.065-.087.086-.108.021-.022.043-.022.043 0v.151c-.236 1.3-.622 1.95-1.159 1.95-.558 0-.837-.476-.837-1.43 0-1.191.322-2.404 1.009-3.704.15-.304.257-.477.3-.477 0 .065-.043.238-.15.542-.429 1.343-.644 2.274-.644 2.816 0 .737.194 1.105.58 1.105.236 0 .493-.282.772-.845zm-16.522.043c.043-.043.065-.086.086-.108.022-.022.043-.022.043 0v.152c-.236 1.3-.622 1.95-1.159 1.95-.557 0-.836-.477-.836-1.43 0-1.192.322-2.405 1.008-3.705.15-.303.258-.477.3-.477 0 .065-.042.239-.15.542-.429 1.343-.643 2.275-.643 2.816 0 .737.193 1.105.579 1.105.236 0 .493-.281.772-.845zM115.7 18.488c0 .433-.193.953-.557 1.517a5.5 5.5 0 0 1-1.46 1.538c-.236.173-.386.26-.429.26v-.022c0-.043.086-.173.3-.39.988-1.061 1.481-1.776 1.481-2.145 0-.325-.171-.498-.493-.498a.912.912 0 0 0-.472.13c-.108.065-.172.108-.193.108-.022-.021-.043-.021-.065-.043 0-.022.022-.108.043-.26.172-.737.537-1.105 1.116-1.105.472 0 .73.303.73.91zM182.793.88H184v10.208h-1.207V.88zm-6.004 10.208c-.044 0-.067-.021-.067-.065v-.932c0-.035.023-.052.067-.052h1.791V.879h1.207v10.21h-2.998zm-8.518 0c-.045 0-.067-.021-.067-.065v-.932c0-.035.022-.052.067-.052h1.685c-.337-.866-.505-1.632-.505-2.297 0-.8.164-1.513.491-2.139a3.953 3.953 0 0 1 1.141-.656 3.766 3.766 0 0 1 1.34-.243c.567 0 1.064.124 1.493.371.43.247.759.598.989 1.053.23.455.345.971.345 1.549 0 .573-.095 1.1-.285 1.58.194.294.412.497.653.611.241.114.558.17.952.17h.066c.049 0 .073.018.073.053v.932c0 .044-.024.065-.073.065h-.066c-.482 0-.893-.065-1.234-.196-.34-.132-.668-.357-.982-.676a2.68 2.68 0 0 1-1.005.66 3.41 3.41 0 0 1-1.197.212h-3.881zm2.401-3.575c0 .415.038.823.113 1.223.075.4.21.835.405 1.303h.962c.606 0 1.07-.204 1.393-.61.323-.407.484-.996.484-1.766 0-.564-.156-1.025-.468-1.384-.311-.359-.69-.538-1.137-.538-.288 0-.57.05-.846.15-.277.102-.523.235-.74.401-.075.188-.122.38-.14.574-.017.195-.026.41-.026.647zm-4.823 2.526V5.616h-.584c-.805 0-1.432.21-1.88.63-.45.42-.674 1.008-.674 1.765 0 .7.154 1.213.461 1.539.308.326.773.489 1.397.489h1.28zm1.155 1.37c0 .915-.274 1.628-.82 2.14-.546.512-1.319.767-2.318.767-.925 0-1.74-.23-2.449-.688l.545-.9c.291.154.592.282.902.385.31.102.652.154 1.028.154.615 0 1.097-.163 1.446-.49.35-.325.524-.76.524-1.302v-.387h-1.333c-.964 0-1.71-.262-2.24-.787-.528-.525-.792-1.284-.792-2.277 0-1.054.338-1.893 1.015-2.516.677-.623 1.581-.935 2.714-.935h1.778v5.466h1.114c.044 0 .066.017.066.052v.932c0 .044-.022.065-.066.065h-1.114v.322zm-9.063-1.37V5.616h-.583c-.805 0-1.432.208-1.881.624-.45.415-.674 1.001-.674 1.758 0 1.36.62 2.04 1.858 2.04h1.28zm-5.705 1.05c-.044 0-.066-.022-.066-.066v-.932c0-.035.022-.052.066-.052h2.063a2.595 2.595 0 0 1-.524-.939 3.51 3.51 0 0 1-.18-1.089c0-1.05.334-1.885 1-2.506.665-.621 1.573-.932 2.723-.932h1.778v6.515h-6.86zm3.45-7.795a.803.803 0 0 1-.541-.19c-.148-.127-.222-.333-.222-.617 0-.285.074-.49.222-.617a.803.803 0 0 1 .54-.19c.23 0 .414.069.551.206.137.138.206.338.206.6 0 .259-.067.458-.202.598-.135.14-.32.21-.554.21zm2.348 0c-.234 0-.42-.07-.557-.21-.137-.14-.206-.34-.206-.597 0-.258.068-.457.203-.597.135-.14.321-.21.56-.21.243 0 .431.073.564.22.133.146.2.342.2.587 0 .245-.067.44-.2.587-.133.146-.32.22-.564.22zm-13.076 9.513c0-.56.164-1.088.491-1.584.327-.497.852-.99 1.573-1.48a9.647 9.647 0 0 1-1.64-2.037c-.45-.75-.725-1.447-.822-2.09a5.717 5.717 0 0 1 1.675-1.082 4.843 4.843 0 0 1 1.901-.394c.57 0 1.146.09 1.725.27.58.178 1.086.417 1.52.714a5.528 5.528 0 0 1-.658 2.49c-.42.799-1.026 1.504-1.817 2.116.49.206 1.004.309 1.539.309h1.645c.044 0 .066.017.066.052v.932c0 .044-.022.065-.066.065h-1.592c-.345 0-.76-.067-1.247-.203a6.432 6.432 0 0 1-1.307-.512c-.646.407-1.1.795-1.36 1.165-.261.37-.392.758-.392 1.164 0 .573.168.994.504 1.263.337.27.86.404 1.573.404.358 0 .7-.023 1.028-.069.327-.046.65-.095.969-.148l.152.926c-.654.135-1.159.223-1.512.262-.354.04-.73.06-1.128.06-.876 0-1.565-.228-2.067-.683-.502-.455-.753-1.092-.753-1.91zm.91-6.836c.11.516.353 1.063.729 1.64s.83 1.083 1.36 1.516c.694-.473 1.217-.987 1.569-1.542a4.052 4.052 0 0 0 .607-1.896 4.157 4.157 0 0 0-1.957-.5c-.77 0-1.54.261-2.309.782zM135.922.879h1.207v10.21h-1.207V.878zm-6.004 10.21c-.044 0-.066-.022-.066-.066v-.932c0-.035.022-.052.066-.052h1.791V.879h1.208v10.21h-3zm-1.83 0v.32c0 .906-.209 1.617-.625 2.133-.415.516-1.015.774-1.797.774-.434 0-.896-.126-1.387-.38l.352-.899c.22.096.402.159.544.187.141.028.296.043.464.043.407 0 .725-.164.955-.492.23-.328.345-.761.345-1.3V4.573h1.148v5.466h1.679c.048 0 .073.017.073.052v.932c0 .044-.025.065-.073.065h-1.679zm-6.688 0c-.407 0-.782-.067-1.125-.2-.342-.134-.697-.38-1.064-.739-.2.276-.465.501-.796.676-.332.175-.728.262-1.188.262h-4.684c-.044 0-.066-.021-.066-.065v-.932c0-.035.022-.052.066-.052h1.944V5.616h1.154v4.423h1.467c.437 0 .778-.144 1.021-.43.243-.287.365-.662.365-1.125V5.616h1.154v3.228l-.013.151c.226.385.472.655.74.81.268.156.61.234 1.025.234h.83V4.573h1.154v6.515H121.4zm-17.375 0c-.044 0-.066-.022-.066-.066v-.932c0-.035.022-.052.066-.052h1.685c-.336-.866-.504-1.632-.504-2.297 0-.8.163-1.513.49-2.139a3.953 3.953 0 0 1 1.142-.656 3.766 3.766 0 0 1 1.34-.243c.566 0 1.064.124 1.493.371.429.247.758.598.988 1.053.23.455.345.971.345 1.549 0 .573-.095 1.1-.285 1.58.195.294.412.497.653.611.241.114.559.17.952.17h.067c.048 0 .073.018.073.053v.932c0 .044-.025.065-.073.065h-.067c-.482 0-.893-.065-1.234-.196-.34-.132-.667-.357-.981-.676a2.68 2.68 0 0 1-1.006.66 3.41 3.41 0 0 1-1.197.212h-3.881zm2.402-3.576c0 .415.037.823.112 1.223.076.4.21.835.405 1.303h.962c.606 0 1.07-.204 1.393-.61.323-.407.485-.996.485-1.766 0-.564-.156-1.025-.468-1.384-.312-.359-.691-.538-1.138-.538-.287 0-.57.05-.846.15-.276.102-.523.235-.74.401-.075.188-.121.38-.139.574-.018.195-.026.41-.026.647zm-12.101 6.803c-.85 0-1.517-.29-2.004-.872-.486-.582-.73-1.371-.73-2.369 0-.468.04-.89.117-1.266.077-.376.197-.761.361-1.155H93.2a5.016 5.016 0 0 0-.352 1.385c-.022.214-.033.533-.033.958 0 .726.153 1.286.458 1.68.305.393.743.59 1.314.59h2.527c.646 0 1.181-.12 1.606-.358.424-.238.637-.524.637-.856 0-.184-.084-.341-.253-.473-.168-.13-.422-.244-.762-.34-.686-.193-1.156-.362-1.41-.506a1.61 1.61 0 0 1-.584-.538 1.399 1.399 0 0 1-.202-.761c0-.516.155-1.015.467-1.496a3.713 3.713 0 0 1 1.211-1.171c.495-.3.99-.45 1.486-.45.305 0 .576.055.813.164.236.11.459.268.667.476.207.208.466.552.776 1.034.389.62.678 1.038.866 1.253.188.214.348.373.48.475.133.103.273.182.419.237.146.054.305.082.477.082h.073c.044 0 .067.017.067.052v.932c0 .044-.023.065-.067.065h-.073c-.38 0-.746-.084-1.098-.252-.351-.169-.713-.447-1.084-.837-.107-.11-.339-.417-.697-.925-.438-.612-.785-1.023-1.042-1.233-.256-.21-.497-.315-.723-.315-.247 0-.513.094-.796.282a2.55 2.55 0 0 0-.71.705c-.19.282-.285.537-.285.764 0 .15.08.283.242.4.162.119.421.23.78.335.65.188 1.11.352 1.383.492.272.14.478.306.617.496.14.19.209.408.209.653 0 1.776-1.163 2.663-3.49 2.663h-2.786zM94.745 17a.803.803 0 0 1-.54-.19c-.15-.127-.223-.333-.223-.617s.074-.49.222-.617a.803.803 0 0 1 .54-.19c.23 0 .414.069.551.207.138.137.206.338.206.6 0 .258-.067.457-.202.597-.135.14-.32.21-.554.21zm2.348 0c-.234 0-.42-.07-.557-.21-.137-.14-.206-.339-.206-.597 0-.258.068-.457.203-.597.135-.14.321-.21.56-.21.244 0 .432.073.564.22.133.146.2.342.2.587 0 .245-.067.44-.2.587-.132.147-.32.22-.564.22zm-15.928-5.912c-.044 0-.067-.021-.067-.065v-.932c0-.035.023-.052.067-.052h1.791V.879h1.207v10.21h-2.998zm-2.747-1.05V5.617h-.583c-.81 0-1.438.211-1.885.634-.446.422-.67 1.009-.67 1.761 0 1.352.62 2.028 1.858 2.028h1.28zm-5.705 1.05c-.044 0-.066-.021-.066-.065v-.932c0-.035.022-.052.066-.052h2.063a2.595 2.595 0 0 1-.524-.939 3.51 3.51 0 0 1-.18-1.089c0-1.067.336-1.907 1.006-2.52.67-.612 1.576-.918 2.717-.918h1.778v5.466h1.44c.026 0 .046.01.06.032l.006.033v.932c0 .035-.022.052-.067.052h-8.3zm4.398-7.794c-.234 0-.42-.07-.557-.21-.137-.14-.205-.34-.205-.597 0-.258.067-.457.202-.597.135-.14.322-.21.56-.21.244 0 .432.073.564.22.133.146.2.342.2.587 0 .245-.067.44-.2.587-.132.146-.32.22-.564.22zm-16.028 7.794c-.044 0-.066-.021-.066-.065v-.932c0-.035.022-.052.066-.052h1.659V4.973h1.154V7.46c.425-1.002.958-1.756 1.599-2.264a3.397 3.397 0 0 1 2.163-.76c1.026 0 1.801.275 2.325.826.524.551.786 1.413.786 2.585v2.192h1.792c.048 0 .073.017.073.052v.932c0 .044-.025.065-.073.065H61.083zm8.532-1.05V7.907c0-.826-.183-1.434-.547-1.824-.365-.39-.917-.584-1.656-.584-1.393 0-2.565 1.146-3.516 3.438v1.103h5.719zm-2.322-6.744c-.235 0-.42-.07-.557-.21-.137-.14-.206-.34-.206-.597 0-.258.067-.457.202-.597.135-.14.322-.21.56-.21.244 0 .432.073.565.22.133.146.199.342.199.587 0 .245-.066.44-.2.587-.132.146-.32.22-.563.22zm-11.809 7.794c-.044 0-.066-.021-.066-.065v-.932c0-.035.022-.052.066-.052h2.203V4.573h1.207v5.466h2.037c.044 0 .066.017.066.052v.932c0 .044-.022.065-.066.065h-5.447zm1.672 2.69a.803.803 0 0 1-.54-.19c-.149-.127-.223-.332-.223-.617 0-.284.074-.49.222-.616a.803.803 0 0 1 .54-.19c.23 0 .414.068.552.206.137.138.205.338.205.6 0 .259-.067.458-.202.598-.135.14-.32.21-.554.21zm2.348 0c-.234 0-.42-.07-.557-.21-.137-.14-.205-.338-.205-.597 0-.258.067-.457.202-.597.135-.14.322-.21.56-.21.244 0 .432.074.564.22.133.147.2.342.2.587 0 .245-.067.441-.2.588-.132.146-.32.22-.564.22zm-8.936-2.69c-.044 0-.066-.021-.066-.065v-.932c0-.035.022-.052.066-.052h1.792V.879h1.207v9.16h1.771c.045 0 .067.017.067.052v.932c0 .044-.022.065-.067.065h-4.77zm-4.027 0c-1.088 0-1.935-.272-2.54-.816-.606-.545-.91-1.307-.91-2.287 0-1.059.337-1.892 1.009-2.5.672-.608 1.577-.912 2.713-.912h.896v-.846h1.161v6.312h1.546c.044 0 .066.017.066.052v.932c0 .044-.022.065-.066.065H46.54zm1.168-1.05V5.617h-.856c-.814 0-1.443.207-1.887.62-.445.414-.667.992-.667 1.736 0 .67.192 1.18.577 1.535.385.354.931.532 1.639.532h1.194zm-1.87-7.551a.803.803 0 0 1-.541-.19c-.149-.127-.223-.333-.223-.617 0-.285.074-.49.223-.617a.803.803 0 0 1 .54-.19c.23 0 .414.069.55.206.138.138.207.338.207.6 0 .259-.068.458-.203.598-.135.14-.32.21-.554.21zm2.348 0c-.235 0-.42-.07-.558-.21-.137-.14-.205-.34-.205-.597 0-.258.067-.457.202-.597.135-.14.322-.21.56-.21.244 0 .432.073.565.22.132.146.199.342.199.587 0 .245-.067.44-.2.587-.132.146-.32.22-.563.22zM34.454.879h1.208v10.21h-1.208V.878zM28.45 11.09c-.044 0-.066-.022-.066-.066v-.932c0-.035.022-.052.066-.052h1.792V.879h1.207v10.21H28.45zm-3.953 0c-.407 0-.782-.067-1.125-.2-.343-.134-.698-.38-1.065-.739-.199.276-.464.501-.796.676-.332.175-.727.262-1.187.262H15.64c-.044 0-.067-.021-.067-.065v-.932c0-.035.023-.052.067-.052h1.944V5.616h1.154v4.423h1.466c.438 0 .779-.144 1.022-.43.243-.287.365-.662.365-1.125V5.616h1.154v3.228l-.013.151c.225.385.472.655.74.81.267.156.609.234 1.025.234h.829V4.573h1.154v5.466h1.818c.049 0 .073.017.073.052v.932c0 .044-.024.065-.073.065h-3.801zM22.16 1.482a.739.739 0 0 1-.504-.174c-.133-.116-.199-.305-.199-.568 0-.258.066-.446.2-.564A.73.73 0 0 1 22.16 0c.19 0 .355.06.495.18.139.12.209.308.209.561 0 .263-.07.452-.21.568a.748.748 0 0 1-.494.174zm-1.167 1.81a.803.803 0 0 1-.541-.19c-.148-.126-.222-.332-.222-.616 0-.285.074-.49.222-.617a.803.803 0 0 1 .54-.19c.244 0 .432.073.565.22.132.146.199.342.199.587 0 .245-.067.44-.2.587-.132.146-.32.22-.563.22zm2.348 0c-.234 0-.42-.07-.557-.21-.137-.14-.206-.338-.206-.596 0-.258.068-.457.203-.597.135-.14.321-.21.56-.21.243 0 .431.073.564.22.133.146.2.342.2.587 0 .245-.067.44-.2.587-.133.146-.32.22-.564.22zm-13.301 7.795c-.045 0-.067-.021-.067-.065v-.932c0-.035.022-.052.067-.052h2.202V4.573h1.208v5.466h2.036c.045 0 .067.017.067.052v.932c0 .044-.022.065-.067.065h-5.446zm1.671 2.69a.803.803 0 0 1-.54-.19c-.148-.127-.222-.332-.222-.617 0-.284.074-.49.222-.616a.803.803 0 0 1 .54-.19c.23 0 .414.068.551.206.137.138.206.338.206.6 0 .259-.068.458-.203.598-.134.14-.32.21-.554.21zm2.349 0c-.234 0-.42-.07-.557-.21-.137-.14-.206-.338-.206-.597 0-.258.068-.457.202-.597.135-.14.322-.21.561-.21.243 0 .431.074.564.22.133.147.199.342.199.587 0 .245-.066.441-.199.588-.133.146-.32.22-.564.22zM4.826 15.4c-.876 0-1.565-.226-2.07-.679C2.252 14.267 2 13.63 2 12.807c0-.568.17-1.09.51-1.568.341-.476.874-.912 1.6-1.305.725-.394 1.725-.775 2.998-1.142a9.103 9.103 0 0 1-.272-1.214C6.717 6.87 6.495 6.344 6.17 6c-.325-.343-.764-.515-1.317-.515-.323 0-.712.065-1.168.194a5.988 5.988 0 0 0-1.207.475L2 5.23c.35-.223.787-.41 1.314-.564a5.54 5.54 0 0 1 1.552-.23c1.734 0 2.749.945 3.045 2.835.142.857.281 1.45.418 1.778.137.328.316.575.538.741.22.166.508.25.862.25h.073c.044 0 .066.017.066.052v.932c0 .044-.022.065-.066.065h-.073c-.495 0-.928-.106-1.297-.318-.37-.212-.682-.554-.939-1.027-1.083.293-1.924.585-2.52.876-.598.291-1.036.61-1.314.955-.28.345-.418.722-.418 1.128 0 .573.168.994.504 1.263.336.27.86.404 1.572.404.456 0 1.121-.072 1.997-.217l.146.926c-.641.135-1.15.223-1.526.262-.376.04-.745.06-1.108.06zm-.08-12.105c-.234 0-.42-.07-.557-.21-.137-.14-.205-.34-.205-.597 0-.258.067-.457.202-.597.135-.14.322-.21.56-.21.244 0 .432.073.565.22.132.146.199.342.199.587 0 .245-.067.44-.2.587-.132.146-.32.22-.563.22z"/>
    </g>
</svg>
